<svg width="209" height="204" viewBox="0 0 209 204" fill="none" xmlns="http://www.w3.org/2000/svg">
<g clip-path="url(#clip0_307_40)">
<mask id="mask0_307_40" style="mask-type:luminance" maskUnits="userSpaceOnUse" x="0" y="-5" width="209" height="209">
<path d="M208.34 -4.34045H0V204H208.34V-4.34045Z" fill="white"/>
</mask>
<g mask="url(#mask0_307_40)">
<path d="M0 63.3941C0 38.0778 16.6513 15.2517 42.8761 9.21356C86.7486 -0.887899 152.968 -9.20947 185.566 21.3511C213.082 47.148 211.047 95.4036 203.263 134.56C195.842 171.891 158.803 195.319 118.297 195.319H32.5532C14.5746 195.319 0 181.655 0 164.801V63.3941Z" fill="url(#paint0_radial_307_40)"/>
</g>
<g filter="url(#filter0_d_307_40)">
<path d="M36.8416 136.325C34.586 134.651 32.8762 132.323 31.712 129.34C30.6207 126.357 29.8567 123.192 29.4201 119.845C28.9836 116.498 28.8017 113.26 28.8744 110.131C28.9472 106.93 29.0927 104.274 29.311 102.164C29.3837 101.364 29.5656 99.9088 29.8567 97.7988C30.2205 95.616 30.5843 93.3241 30.9481 90.923C31.3846 88.4492 31.7848 86.1573 32.1486 84.0473C32.5852 81.8645 32.9126 80.3729 33.1308 79.5726C35.0226 71.7146 37.0962 65.3845 39.3518 60.5824C41.6801 55.7803 44.0084 52.1423 46.3367 49.6685C48.7377 47.1219 51.1024 45.594 53.4307 45.0847C55.759 44.5754 57.8326 44.7209 59.6516 45.5212C61.5433 46.2488 63.1077 47.4494 64.3446 49.1228C65.6542 50.7963 66.4546 52.6153 66.7456 54.5798C67.1094 56.4715 66.8911 58.3269 66.0908 60.1458C65.2904 61.9648 63.7625 63.3473 61.507 64.2931C61.1432 64.4386 60.6702 64.5842 60.0881 64.7297C59.5788 64.8024 59.0695 64.8388 58.5602 64.8388C58.0509 64.8388 57.6143 64.8024 57.2505 64.7297C56.9595 64.5842 56.814 64.4386 56.814 64.2931V52.9427C56.814 52.7244 56.4138 52.6153 55.6135 52.6153C54.8859 52.6153 54.3038 52.7244 53.8672 52.9427C51.4662 54.3251 49.2834 56.617 47.3189 59.8184C45.3544 62.9471 43.6082 66.3668 42.0802 70.0775C40.6251 73.7154 39.4245 77.2807 38.4787 80.7731C37.6055 84.1928 37.0598 86.9213 36.8416 88.9585C36.7688 89.7589 36.6961 90.9958 36.6233 92.6692C36.5505 94.3427 36.4778 96.2708 36.405 98.4536C36.405 100.564 36.405 102.783 36.405 105.111C36.405 107.439 36.405 109.659 36.405 111.769C36.4778 113.879 36.5505 115.807 36.6233 117.553C36.6961 119.226 36.7688 120.463 36.8416 121.264C36.8416 122.501 37.169 123.81 37.8238 125.193C38.4787 126.502 39.279 127.776 40.2249 129.012C41.1707 130.177 42.1894 131.268 43.2808 132.287C44.3722 133.233 45.3908 133.924 46.3367 134.36C48.8105 135.597 51.4662 135.888 54.3038 135.233C57.2142 134.579 60.0518 133.269 62.8166 131.304C65.6542 129.34 68.3463 126.939 70.8929 124.101C73.4395 121.264 75.6222 118.317 77.4412 115.261C79.333 112.205 80.7154 109.186 81.5885 106.202C82.5344 103.219 82.789 100.636 82.3525 98.4536C79.6604 98.0898 76.9683 98.1626 74.2762 98.6719C71.5841 99.1084 68.892 99.6541 66.1999 100.309C63.5806 100.964 60.9249 101.546 58.2328 102.055C55.5407 102.492 52.8122 102.528 50.0474 102.164C49.9019 101.728 49.7927 101.218 49.72 100.636C49.72 100.054 49.7927 99.5086 49.9382 98.9993C50.0838 98.4172 50.302 97.9079 50.5931 97.4713C50.9569 97.0348 51.4298 96.7074 52.0119 96.4891C54.6312 96.4891 57.5416 95.9798 60.743 94.9611C63.9444 93.9425 67.1822 92.8875 70.4563 91.7961C73.7305 90.7047 76.8955 89.7952 79.9514 89.0676C83.0073 88.3401 85.663 88.3037 87.9186 88.9585C88.3551 93.033 87.9913 97.5077 86.8272 102.383C85.663 107.257 83.9168 111.987 81.5885 116.571C79.2602 121.154 76.4226 125.375 73.0757 129.231C69.8015 133.087 66.1999 136.107 62.2709 138.289C58.3419 140.399 54.1946 141.418 49.8291 141.345C45.5363 141.272 41.2071 139.599 36.8416 136.325Z" fill="white"/>
</g>
<g filter="url(#filter1_d_307_40)">
<path d="M139.541 137.171C137.672 134.405 136.551 131.341 136.178 127.978C135.804 124.54 135.804 120.953 136.178 117.216C136.551 113.48 137.149 109.705 137.971 105.894C138.793 102.082 139.503 98.4203 140.101 94.9077C140.699 91.3204 141.035 87.9947 141.11 84.9306C141.185 81.7917 140.662 79.1012 139.541 76.8591C138.943 75.6634 138.121 75.1029 137.074 75.1776C136.103 75.1776 135.019 75.3271 133.823 75.626C132.702 75.8502 131.544 75.9249 130.348 75.8502C129.227 75.7755 128.218 75.0655 127.321 73.7202C127.396 73.4213 127.695 73.0476 128.218 72.5992C128.667 72.0761 129.003 71.7771 129.227 71.7024C135.953 70.7308 141.559 71.4408 146.043 73.8323C150.602 76.1491 154.226 79.4749 156.917 83.8095C159.607 88.0694 161.438 92.9646 162.41 98.495C163.456 104.025 163.83 109.519 163.531 114.974C163.232 120.43 162.372 125.512 160.952 130.22C159.532 134.854 157.739 138.441 155.571 140.982C153.404 143.523 150.938 144.644 148.173 144.345C145.407 144.046 142.53 141.655 139.541 137.171ZM145.37 133.247C145.445 133.471 145.669 133.77 146.043 134.144C146.416 134.518 146.79 134.929 147.164 135.377C147.612 135.825 148.023 136.236 148.397 136.61C148.771 136.909 149.032 137.096 149.182 137.171C151.947 135.601 154.002 133.471 155.347 130.781C156.692 128.09 157.477 125.101 157.701 121.813C158 118.524 157.851 115.086 157.253 111.499C156.73 107.837 155.945 104.324 154.899 100.961C153.853 97.5982 152.619 94.4967 151.199 91.6568C149.854 88.8168 148.546 86.5 147.276 84.7064C147.201 85.6779 147.052 87.1726 146.827 89.1905C146.603 91.2083 146.379 93.4878 146.155 96.0288C145.931 98.5698 145.669 101.26 145.37 104.1C145.071 106.94 144.772 109.668 144.473 112.284C144.249 114.825 144.025 117.104 143.801 119.122C143.576 121.14 143.427 122.635 143.352 123.606C143.277 124.354 143.277 125.213 143.352 126.185C143.502 127.081 143.688 127.978 143.913 128.875C144.137 129.772 144.361 130.631 144.585 131.453C144.884 132.201 145.146 132.799 145.37 133.247Z" fill="white"/>
</g>
<g clip-path="url(#clip1_307_40)">
<g filter="url(#filter2_d_307_40)">
<path d="M103.166 139.287C103.071 139.26 102.25 139.226 101.334 139.219C99.6113 139.199 99.6248 139.104 101.354 139.09C101.877 139.083 102.216 139.056 102.216 139.015C102.216 138.982 102.345 138.941 102.508 138.941L102.792 138.934L102.521 138.873C102.372 138.846 101.327 138.819 100.201 138.819C98.8787 138.812 98.1461 138.785 98.1461 138.744C98.1461 138.703 99.0958 138.676 100.859 138.676C102.623 138.676 103.573 138.656 103.573 138.608C103.573 138.568 103.762 138.541 104.013 138.541H104.448L104.414 137.408C104.393 136.777 104.353 136.18 104.319 136.065C104.291 135.956 104.264 135.678 104.258 135.454C104.244 135.068 104.169 134.708 104.041 134.457C104.007 134.389 103.979 134.247 103.979 134.138C103.979 134.023 103.952 133.915 103.912 133.894C103.878 133.874 103.844 133.765 103.844 133.657C103.844 133.548 103.878 133.44 103.912 133.419C103.952 133.399 103.979 133.304 103.979 133.216C103.979 133.026 104.115 132.707 104.197 132.707C104.224 132.707 104.251 132.66 104.251 132.599C104.251 132.545 104.373 132.382 104.515 132.239C104.665 132.097 104.841 131.873 104.909 131.737C105.072 131.439 105.445 131.012 105.54 131.012C105.641 131.012 105.947 130.7 105.947 130.591C105.947 130.537 106.008 130.455 106.082 130.401C106.157 130.347 106.218 130.252 106.218 130.184C106.218 130.116 106.252 130.062 106.286 130.062C106.326 130.062 106.354 130.001 106.354 129.926C106.354 129.852 106.387 129.791 106.421 129.791C106.462 129.791 106.489 129.73 106.489 129.655C106.489 129.58 106.523 129.519 106.557 129.519C106.598 129.519 106.625 129.431 106.625 129.316C106.625 129.207 106.645 129.112 106.679 129.112C106.747 129.112 106.896 128.773 106.896 128.624C106.896 128.556 106.916 128.502 106.95 128.502C106.998 128.502 107.066 128.366 107.235 127.891C107.29 127.763 107.351 127.627 107.378 127.586C107.398 127.552 107.446 127.41 107.473 127.281C107.5 127.152 107.574 126.935 107.642 126.806C107.791 126.501 107.988 125.945 108.029 125.701C108.049 125.599 108.09 125.497 108.124 125.477C108.158 125.456 108.185 125.368 108.185 125.28C108.185 125.192 108.219 125.097 108.253 125.076C108.293 125.056 108.321 124.914 108.321 124.764C108.321 124.622 108.354 124.5 108.388 124.5C108.429 124.5 108.456 124.412 108.456 124.296C108.456 124.188 108.49 124.093 108.524 124.093C108.565 124.093 108.592 123.944 108.592 123.754C108.592 123.571 108.626 123.415 108.66 123.415C108.7 123.415 108.728 123.326 108.728 123.211C108.728 123.103 108.761 123.008 108.795 123.008C108.836 123.008 108.863 122.886 108.863 122.736C108.863 122.587 108.897 122.465 108.931 122.465C108.972 122.465 108.999 122.39 108.999 122.295C108.999 122.201 109.033 122.126 109.067 122.126C109.107 122.126 109.135 122.038 109.135 121.922C109.135 121.814 109.168 121.719 109.202 121.719C109.243 121.719 109.27 121.678 109.27 121.631C109.27 121.583 109.331 121.475 109.406 121.393C109.48 121.312 109.541 121.203 109.541 121.142C109.541 121.088 109.575 121.041 109.609 121.041C109.65 121.041 109.677 120.993 109.677 120.932C109.677 120.871 109.765 120.735 109.881 120.634C109.989 120.532 110.084 120.417 110.084 120.383C110.084 120.281 110.776 119.474 111.366 118.884C111.671 118.578 111.916 118.287 111.916 118.239C111.916 118.192 111.977 118.11 112.051 118.056C112.126 118.002 112.187 117.907 112.187 117.839C112.187 117.771 112.214 117.717 112.248 117.717C112.302 117.717 112.397 117.385 112.39 117.208C112.384 116.869 112.295 116.293 112.248 116.293C112.214 116.293 112.187 116.184 112.187 116.055C112.187 115.926 112.16 115.818 112.119 115.818C112.085 115.818 112.051 115.743 112.051 115.648C112.051 115.553 112.024 115.479 111.983 115.479C111.949 115.479 111.916 115.39 111.916 115.275C111.916 115.167 111.888 115.072 111.848 115.072C111.814 115.072 111.78 115.011 111.78 114.936C111.78 114.861 111.753 114.8 111.712 114.8C111.678 114.8 111.644 114.739 111.644 114.665C111.644 114.529 111.597 114.529 108.863 114.529C107.215 114.529 106.082 114.556 106.082 114.59C106.082 114.624 105.858 114.671 105.594 114.692C104.678 114.76 104.285 114.814 104.224 114.875C104.183 114.909 104.027 114.936 103.864 114.936C103.701 114.936 103.573 114.963 103.573 114.997C103.573 115.031 103.41 115.078 103.22 115.099C102.318 115.194 102.148 115.228 102.148 115.282C102.148 115.316 101.999 115.343 101.809 115.343C101.626 115.343 101.47 115.377 101.47 115.411C101.47 115.451 101.246 115.479 100.927 115.479C100.608 115.479 100.385 115.506 100.385 115.546C100.385 115.587 100.249 115.614 100.086 115.614C99.9165 115.614 99.7605 115.648 99.7401 115.682C99.7198 115.723 99.6384 115.75 99.5638 115.75C99.4824 115.75 99.4349 115.797 99.4349 115.886C99.4349 115.96 99.4078 116.021 99.3671 116.021C99.3332 116.021 99.2992 116.082 99.2992 116.157C99.2992 116.232 99.2721 116.293 99.2382 116.293C99.2043 116.293 99.15 116.354 99.1297 116.428C99.1093 116.503 99.0483 116.564 98.994 116.564C98.9465 116.564 98.8855 116.645 98.8584 116.754C98.8312 116.856 98.7498 117.079 98.6752 117.263C98.5599 117.534 98.5056 117.581 98.3496 117.581C98.2479 117.581 98.0851 117.507 97.9901 117.419C97.807 117.249 97.7392 117.256 97.7392 117.459C97.7392 117.534 97.6917 117.581 97.6035 117.581C97.5289 117.581 97.4678 117.554 97.4678 117.52C97.4678 117.486 97.4068 117.432 97.3322 117.412C97.2576 117.391 97.1965 117.324 97.1965 117.269C97.1965 117.215 97.1423 117.174 97.0812 117.174C96.8506 117.174 96.7896 116.862 96.7896 115.641C96.7896 114.929 96.8167 114.454 96.8574 114.427C96.8981 114.407 96.9252 114.251 96.9252 114.081C96.9252 113.919 96.9591 113.783 96.993 113.783C97.0337 113.783 97.0609 113.708 97.0609 113.613C97.0609 113.518 97.1355 113.362 97.2304 113.274C97.3865 113.111 97.4339 113.105 98.2479 113.105C98.7702 113.105 99.0958 113.077 99.0958 113.037C99.0958 113.003 99.1704 112.969 99.2653 112.969C99.3603 112.969 99.4349 112.942 99.4349 112.901C99.4349 112.867 99.5299 112.833 99.6384 112.833C99.7537 112.833 99.8419 112.806 99.8419 112.765C99.8419 112.732 99.9029 112.698 99.9775 112.698C100.052 112.698 100.113 112.67 100.113 112.63C100.113 112.596 100.161 112.562 100.215 112.562C100.385 112.562 100.927 111.979 100.927 111.795C100.927 111.619 100.697 111.477 100.418 111.477C100.323 111.477 100.249 111.45 100.249 111.409C100.249 111.375 100.181 111.341 100.093 111.341C100.005 111.341 99.9097 111.314 99.869 111.273C99.8351 111.239 99.6655 111.199 99.5027 111.185C99.3332 111.171 99.1093 111.124 98.994 111.076C98.7837 110.988 98.0715 110.812 97.6917 110.751C97.495 110.717 97.4678 110.69 97.4678 110.513C97.4678 110.303 97.4678 110.303 97.7934 110.344C98.4582 110.425 98.7295 110.473 98.8584 110.527C99.0618 110.615 100.412 110.656 101.063 110.602C101.382 110.568 101.823 110.493 102.04 110.432C102.263 110.371 102.46 110.344 102.48 110.378C102.541 110.466 103.071 110.731 103.199 110.731C103.254 110.731 103.301 110.764 103.301 110.798C103.301 110.839 103.342 110.866 103.389 110.866C103.43 110.866 103.552 110.934 103.654 111.022C103.993 111.3 104.149 111.416 104.339 111.531C104.441 111.592 104.522 111.667 104.522 111.694C104.522 111.721 104.576 111.748 104.651 111.748C104.726 111.748 104.807 111.829 104.861 111.951L104.943 112.155H106.075C106.699 112.155 107.235 112.128 107.276 112.094C107.31 112.06 107.629 112.013 107.981 111.992C109.257 111.918 109.711 111.87 109.772 111.809C109.813 111.775 109.928 111.748 110.03 111.748C110.172 111.748 110.22 111.714 110.22 111.612C110.22 111.538 110.193 111.477 110.166 111.477C110.091 111.477 109.677 110.703 109.677 110.568C109.677 110.507 109.65 110.459 109.609 110.459C109.575 110.459 109.541 110.398 109.541 110.324C109.541 110.249 109.514 110.188 109.48 110.188C109.447 110.188 109.406 110.1 109.385 109.991C109.365 109.883 109.297 109.747 109.236 109.693C109.182 109.632 109.135 109.51 109.135 109.415C109.135 109.32 109.107 109.238 109.067 109.238C109.033 109.238 108.999 109.177 108.999 109.096C108.999 108.913 108.836 108.75 108.7 108.804C108.639 108.825 108.592 108.872 108.592 108.906C108.592 108.94 108.504 108.967 108.388 108.967C108.28 108.967 108.185 109.001 108.185 109.042C108.185 109.089 107.92 109.103 107.391 109.082C106.51 109.048 106.082 108.987 106.082 108.892C106.082 108.858 105.994 108.831 105.879 108.831C105.77 108.831 105.675 108.804 105.675 108.763C105.675 108.73 105.614 108.696 105.54 108.696C105.465 108.696 105.404 108.669 105.404 108.628C105.404 108.594 105.363 108.56 105.309 108.56C105.173 108.56 104.651 108.268 104.373 108.031C104.264 107.936 104.271 107.909 104.522 107.624C104.678 107.454 104.793 107.251 104.793 107.163C104.793 107.007 104.773 107 104.353 107C104.102 107 103.912 107.027 103.912 107.068C103.912 107.108 103.864 107.136 103.81 107.136C103.756 107.136 103.708 107.176 103.708 107.231C103.708 107.285 103.647 107.353 103.573 107.373C103.498 107.393 103.437 107.454 103.437 107.509C103.437 107.617 103.213 107.712 103.179 107.617C103.166 107.576 103.118 107.543 103.071 107.543C103.023 107.543 102.887 107.454 102.772 107.339C102.65 107.231 102.528 107.136 102.494 107.136C102.46 107.136 102.406 107.075 102.385 107C102.365 106.925 102.297 106.864 102.243 106.864C102.189 106.864 102.148 106.837 102.148 106.796C102.148 106.763 102.08 106.668 101.992 106.579C101.911 106.491 101.721 106.24 101.572 106.016C101.429 105.793 101.287 105.603 101.253 105.589C101.226 105.576 101.198 105.487 101.198 105.399C101.198 105.311 101.171 105.236 101.131 105.236C101.009 105.236 101.056 104.829 101.178 104.789C101.246 104.768 101.361 104.721 101.436 104.694C101.51 104.66 101.673 104.599 101.795 104.544C101.911 104.497 102.012 104.436 102.012 104.409C102.012 104.375 102.087 104.355 102.182 104.355C102.277 104.355 102.352 104.327 102.352 104.287C102.352 104.253 102.413 104.219 102.487 104.219C102.562 104.219 102.623 104.192 102.623 104.151C102.623 104.117 102.684 104.083 102.759 104.083C102.833 104.083 102.894 104.056 102.894 104.015C102.894 103.982 102.955 103.948 103.03 103.948C103.104 103.948 103.166 103.92 103.166 103.88C103.166 103.846 103.24 103.812 103.335 103.812C103.43 103.812 103.505 103.785 103.505 103.744C103.505 103.71 103.579 103.676 103.674 103.676C103.769 103.676 103.844 103.656 103.844 103.629C103.844 103.568 104.176 103.405 104.298 103.405C104.346 103.405 104.386 103.378 104.386 103.337C104.386 103.303 104.434 103.269 104.488 103.269C104.542 103.269 104.59 103.242 104.59 103.201C104.59 103.168 104.637 103.134 104.698 103.134C104.76 103.134 104.888 103.079 104.983 103.012C105.085 102.944 105.282 102.828 105.424 102.761C105.56 102.686 105.675 102.605 105.675 102.577C105.675 102.544 105.723 102.523 105.784 102.523C106.008 102.523 106.082 102.347 106.082 101.818C106.082 101.519 106.109 101.302 106.15 101.302C106.191 101.302 106.218 101.18 106.218 101.031C106.218 100.882 106.252 100.76 106.286 100.76C106.326 100.76 106.354 100.671 106.354 100.556C106.354 100.448 106.387 100.353 106.421 100.353C106.462 100.353 106.489 100.292 106.489 100.217C106.489 100.142 106.523 100.081 106.557 100.081C106.598 100.081 106.625 100.02 106.625 99.9457C106.625 99.871 106.652 99.81 106.679 99.81C106.706 99.81 106.788 99.7218 106.849 99.6065C106.916 99.498 107.106 99.2606 107.269 99.0842C107.439 98.9011 107.574 98.7383 107.574 98.7112C107.574 98.6772 107.608 98.6569 107.642 98.6569C107.683 98.6569 107.927 98.4466 108.185 98.1821C108.443 97.9243 108.687 97.7073 108.728 97.7073C108.829 97.7073 108.999 97.5377 108.999 97.436C108.999 97.3953 109.155 97.2189 109.338 97.0426C109.528 96.873 109.677 96.6763 109.677 96.6085C109.677 96.5406 109.711 96.4864 109.745 96.4864C109.786 96.4864 109.813 96.4389 109.813 96.3846C109.813 96.3304 109.847 96.2829 109.881 96.2829C109.921 96.2829 109.948 96.1947 109.948 96.0929C109.948 95.9912 109.982 95.8691 110.03 95.8216C110.091 95.7606 110.091 95.6995 110.03 95.5707C109.969 95.4418 109.969 95.3536 110.023 95.2586C110.084 95.1433 110.064 95.0959 109.935 94.9805C109.833 94.8856 109.806 94.8313 109.867 94.811C109.996 94.7635 109.962 94.465 109.813 94.3022C109.738 94.2209 109.677 94.0988 109.677 94.0309C109.677 93.9631 109.657 93.9088 109.63 93.9088C109.569 93.9088 109.406 93.5765 109.406 93.4544C109.406 93.4069 109.379 93.3662 109.338 93.3662C109.304 93.3662 109.27 93.3187 109.27 93.2645C109.27 93.2102 109.243 93.1627 109.202 93.1627C109.168 93.1627 109.135 93.0949 109.135 93.0067C109.135 92.9253 109.073 92.81 108.999 92.7557C108.924 92.7015 108.863 92.6201 108.863 92.5726C108.863 92.5251 108.707 92.3284 108.524 92.1385L108.185 91.7926V92.1724C108.185 92.3827 108.158 92.5522 108.117 92.5522C108.083 92.5522 108.049 92.3827 108.049 92.1792C108.049 91.9689 108.015 91.7654 107.981 91.7179C107.832 91.5416 107.574 91.155 107.507 91.0057C107.466 90.9108 107.391 90.8565 107.317 90.8701C107.229 90.8904 107.195 90.9718 107.181 91.2974C107.154 91.7858 107.188 91.935 107.378 92.1521C107.561 92.3623 107.513 92.715 107.276 92.9389C107.106 93.0881 106.781 93.1627 106.862 93.0271C106.883 92.9931 106.95 92.9592 107.011 92.9592C107.167 92.9592 107.385 92.6811 107.33 92.559C107.303 92.498 107.249 92.3623 107.208 92.247C107.052 91.8265 106.896 91.7993 106.896 92.1928C106.896 92.3691 106.869 92.4166 106.76 92.4166C106.645 92.4166 106.625 92.3691 106.625 92.1385C106.625 91.9893 106.659 91.7383 106.699 91.5755C106.781 91.2431 106.754 90.6666 106.666 90.8904C106.638 90.965 106.584 91.0804 106.55 91.1414C106.516 91.2092 106.489 91.311 106.489 91.3652C106.489 91.4195 106.462 91.467 106.421 91.467C106.387 91.467 106.354 91.528 106.354 91.6026C106.354 91.6772 106.326 91.7383 106.286 91.7383C106.252 91.7383 106.218 91.7993 106.218 91.874C106.218 91.9486 106.191 92.0096 106.15 92.0096C106.116 92.0096 106.082 92.1046 106.082 92.2131C106.082 92.3284 106.055 92.4166 106.014 92.4166C105.98 92.4166 105.947 92.4776 105.947 92.5522C105.947 92.6269 105.919 92.6879 105.879 92.6879C105.845 92.6879 105.811 92.7625 105.811 92.8507C105.811 92.9457 105.784 93.0406 105.743 93.061C105.709 93.0813 105.675 93.1627 105.675 93.2373C105.675 93.3052 105.655 93.3662 105.628 93.3662C105.56 93.3662 105.404 93.6986 105.404 93.8478C105.404 93.9156 105.384 93.9767 105.356 93.9902C105.282 94.0174 104.997 94.5804 104.997 94.6889C104.997 94.7364 104.97 94.7906 104.936 94.8042C104.902 94.811 104.698 95.1772 104.488 95.6046C104.271 96.0319 104.068 96.3982 104.034 96.405C104.007 96.4185 103.979 96.4796 103.979 96.5474C103.979 96.6085 103.918 96.7305 103.844 96.8119C103.769 96.8933 103.708 96.9883 103.708 97.029C103.708 97.1307 103.559 97.3817 103.423 97.5106C103.355 97.5716 103.301 97.6734 103.301 97.7344C103.301 97.8022 103.24 97.8429 103.132 97.8429C103.037 97.8429 102.962 97.8769 102.962 97.9108C102.962 97.9515 102.915 97.9786 102.86 97.9786C102.806 97.9786 102.759 97.9515 102.759 97.9108C102.759 97.8769 102.636 97.8429 102.494 97.8429C102.345 97.8429 102.202 97.809 102.182 97.7751C102.162 97.7412 101.992 97.7073 101.802 97.7073C101.619 97.7073 101.47 97.6802 101.47 97.6395C101.47 97.6055 101.348 97.5716 101.198 97.5716C101.049 97.5716 100.927 97.5445 100.927 97.5038C100.927 97.4699 100.832 97.436 100.71 97.436C100.5 97.436 100.12 97.341 99.8961 97.2257C99.8283 97.1918 99.6927 97.1647 99.5841 97.1647C99.4824 97.1647 99.3671 97.1375 99.3264 97.1104C99.2925 97.0765 99.1297 97.0154 98.9601 96.9679C98.7905 96.9205 98.5192 96.8255 98.3496 96.7509C98.1801 96.6831 97.9155 96.5949 97.7595 96.5542C97.6035 96.5135 97.4272 96.4389 97.3729 96.3846C97.3186 96.3304 97.2033 96.2829 97.1151 96.2829C97.027 96.2829 96.8574 96.2218 96.7353 96.1472C96.6132 96.0726 96.4572 96.0116 96.3826 96.0116C96.308 96.0116 96.2469 95.9844 96.2469 95.9437C96.2469 95.9098 96.1859 95.8759 96.118 95.8759C96.0434 95.8759 95.962 95.8488 95.9417 95.8081C95.9213 95.7741 95.8399 95.7402 95.7653 95.7402C95.6975 95.7402 95.6365 95.7131 95.6365 95.6724C95.6365 95.6385 95.5618 95.6046 95.4669 95.6046C95.3719 95.6046 95.2973 95.5774 95.2973 95.5367C95.2973 95.5028 95.2227 95.4689 95.1277 95.4689C95.0328 95.4689 94.9582 95.4418 94.9582 95.4011C94.9582 95.3672 94.8971 95.3333 94.8225 95.3333C94.7479 95.3333 94.6868 95.3061 94.6868 95.2654C94.6868 95.2315 94.6258 95.1976 94.5512 95.1976C94.4766 95.1976 94.4155 95.1705 94.4155 95.1298C94.4155 95.0959 94.3545 95.0619 94.2799 95.0619C94.2053 95.0619 94.1442 95.0416 94.1442 95.0077C94.1442 94.9805 94.0492 94.9195 93.9407 94.872C93.8254 94.8178 93.7372 94.7431 93.7372 94.6957C93.7372 94.6482 93.6762 94.5464 93.6016 94.465C93.527 94.3836 93.4659 94.3022 93.4659 94.2819C93.4659 94.2616 93.4049 94.1191 93.337 93.9563C93.2624 93.8003 93.12 93.4679 93.0115 93.2238C92.9029 92.9728 92.7605 92.6947 92.6859 92.5929L92.5502 92.4166L92.4349 92.6404C92.3739 92.7557 92.3196 92.9253 92.3128 93.0135C92.3128 93.1017 92.2382 93.2441 92.1432 93.3391C91.9872 93.4951 91.9601 93.5019 91.8651 93.4069C91.8109 93.3459 91.7905 93.2984 91.8312 93.2984C91.8719 93.2984 91.9058 93.1627 91.9058 92.9931C91.9058 92.7354 91.8855 92.6879 91.7702 92.6879C91.682 92.6879 91.6345 92.6404 91.6345 92.5522C91.6345 92.4776 91.6684 92.4166 91.7023 92.4166C91.743 92.4166 91.7702 92.3555 91.7702 92.2809C91.7702 92.1724 91.7227 92.1453 91.5396 92.1453C91.3157 92.1453 91.2275 92.0571 91.2275 91.84C91.2275 91.7926 91.3225 91.7179 91.431 91.6705C91.5396 91.623 91.6345 91.5619 91.6345 91.528C91.6345 91.4941 91.682 91.467 91.743 91.467C91.8041 91.467 91.9058 91.4127 91.9669 91.3449C92.0279 91.2838 92.1975 91.1889 92.3467 91.1414C92.4959 91.0871 92.713 90.999 92.8351 90.9447C93.0318 90.8429 93.0589 90.8429 93.2217 90.9447C93.3167 91.0057 93.4049 91.0329 93.4252 90.999C93.5134 90.8633 92.9504 90.5852 92.6045 90.5852C92.1568 90.5852 91.7091 90.1986 92.0144 90.0833C92.1907 90.0154 92.8554 90.0358 93.1539 90.1172C93.7033 90.2664 94.1442 90.5309 94.1442 90.7141C94.1442 90.7548 94.1781 90.7887 94.212 90.7887C94.2527 90.7887 94.2799 90.8362 94.2799 90.8904C94.2799 90.9447 94.3138 90.9922 94.3477 90.9922C94.3884 90.9922 94.4155 91.0261 94.4155 91.0668C94.4155 91.1075 94.4969 91.2228 94.6054 91.3245C94.8496 91.5687 94.9582 91.7654 94.9582 91.996C94.9582 92.0978 95.0192 92.3488 95.0938 92.5522C95.1684 92.7557 95.2295 93.0067 95.2295 93.1152C95.2295 93.59 95.6432 93.9292 96.5182 94.1869C96.6878 94.2344 96.8574 94.2955 96.8913 94.3226C96.9523 94.3633 97.1491 94.4108 97.6578 94.499C97.7731 94.5193 97.8748 94.56 97.8748 94.5939C97.8748 94.6278 97.9969 94.655 98.1461 94.655C98.2954 94.655 98.4175 94.6889 98.4175 94.7228C98.4175 94.7635 98.5531 94.7906 98.7159 94.7906C98.8855 94.7906 99.0415 94.8178 99.0618 94.8585C99.0822 94.8924 99.3332 94.9263 99.6113 94.9263C99.9029 94.9263 100.113 94.9534 100.113 94.9941C100.113 95.0348 100.452 95.0619 100.995 95.0619C101.538 95.0619 101.877 95.0891 101.877 95.1298C101.877 95.374 102.27 95.0077 102.331 94.7092C102.352 94.6007 102.392 94.5193 102.426 94.5193C102.46 94.5193 102.487 94.4583 102.487 94.3836C102.487 94.309 102.521 94.248 102.555 94.248C102.596 94.248 102.623 94.1734 102.623 94.0784C102.623 93.9835 102.657 93.9088 102.691 93.9088C102.731 93.9088 102.759 93.8478 102.759 93.7732C102.759 93.6986 102.792 93.6375 102.826 93.6375C102.867 93.6375 102.894 93.5629 102.894 93.4747C102.894 93.3798 102.928 93.2848 102.962 93.2645C103.003 93.2441 103.03 93.1627 103.03 93.0881C103.03 93.0203 103.064 92.9592 103.098 92.9592C103.138 92.9592 103.166 92.871 103.166 92.7557C103.166 92.6472 103.199 92.5522 103.233 92.5522C103.274 92.5522 103.301 92.4912 103.301 92.4166C103.301 92.342 103.335 92.2809 103.369 92.2809C103.41 92.2809 103.437 92.1928 103.437 92.0774C103.437 91.84 103.369 91.8197 103.233 92.0096C103.179 92.0842 103.091 92.1453 103.03 92.1453C102.969 92.1453 102.881 92.2063 102.826 92.2809C102.725 92.4166 102.419 92.4709 102.419 92.3488C102.419 92.3148 102.48 92.2809 102.555 92.2809C102.63 92.2809 102.691 92.2538 102.691 92.2131C102.691 92.1792 102.738 92.1453 102.792 92.1453C102.847 92.1453 102.894 92.1181 102.894 92.0842C102.894 92.0503 102.955 91.996 103.03 91.9757C103.104 91.9553 103.166 91.8943 103.166 91.84C103.166 91.7858 103.227 91.7247 103.301 91.7044C103.376 91.684 103.437 91.6162 103.437 91.5619C103.437 91.5077 103.471 91.467 103.505 91.467C103.545 91.467 103.573 91.4059 103.573 91.3313C103.573 91.2567 103.606 91.1957 103.64 91.1957C103.681 91.1957 103.708 91.0803 103.708 90.9447V90.6937L103.573 90.8429C103.498 90.9243 103.437 91.0329 103.437 91.0939C103.437 91.1482 103.41 91.1957 103.369 91.1957C103.335 91.1957 103.301 91.2364 103.301 91.2838C103.301 91.3245 103.206 91.4398 103.084 91.5348C102.969 91.6298 102.833 91.7451 102.786 91.7858C102.738 91.8333 102.67 91.874 102.63 91.874C102.589 91.874 102.555 91.9079 102.555 91.9418C102.555 91.9825 102.508 92.0096 102.453 92.0096C102.399 92.0096 102.352 92.0435 102.352 92.0774C102.352 92.1181 102.277 92.1453 102.182 92.1453C102.087 92.1453 102.012 92.1792 102.012 92.2131C102.012 92.2538 101.904 92.2809 101.775 92.2809C101.646 92.2809 101.538 92.3148 101.538 92.3488C101.538 92.3895 101.449 92.4166 101.334 92.4166C101.226 92.4166 101.131 92.3895 101.131 92.3488C101.131 92.3148 101.205 92.2809 101.3 92.2809C101.395 92.2809 101.47 92.2538 101.47 92.2131C101.47 92.1792 101.517 92.1453 101.572 92.1453C101.626 92.1453 101.673 92.1181 101.673 92.091C101.673 92.0571 101.782 91.996 101.911 91.9418C102.04 91.8875 102.148 91.8265 102.148 91.7926C102.148 91.7654 102.182 91.7383 102.223 91.7383C102.27 91.7383 102.352 91.684 102.413 91.623C102.474 91.5552 102.582 91.467 102.657 91.4263C102.731 91.3856 102.82 91.2906 102.86 91.2092C102.894 91.1278 102.948 91.06 102.976 91.06C103.01 91.06 103.03 91.0125 103.03 90.9583C103.03 90.904 103.064 90.8565 103.098 90.8565C103.138 90.8565 103.166 90.7955 103.166 90.7209C103.166 90.6462 103.199 90.5852 103.233 90.5852C103.274 90.5852 103.301 90.5241 103.301 90.4495C103.301 90.3749 103.335 90.3139 103.369 90.3139C103.41 90.3139 103.437 90.2257 103.437 90.1104C103.437 90.0019 103.416 89.9069 103.396 89.9069C103.328 89.9069 103.166 90.0968 103.166 90.1714C103.166 90.2121 103.077 90.341 102.962 90.4631C102.854 90.5784 102.759 90.7141 102.759 90.7616C102.759 90.8158 102.711 90.8565 102.657 90.8565C102.609 90.8565 102.535 90.8972 102.508 90.9447C102.419 91.0871 101.823 91.4738 101.782 91.4127C101.761 91.3788 101.809 91.311 101.89 91.2567C102.216 91.0329 102.318 90.9311 102.216 90.9311C102.162 90.9243 102.04 90.9854 101.945 91.06C101.85 91.1346 101.707 91.1957 101.626 91.1957C101.538 91.1957 101.47 91.216 101.47 91.2499C101.47 91.3178 100.968 91.467 100.724 91.467C100.615 91.467 100.52 91.5009 100.52 91.5348C100.52 91.5755 100.418 91.6026 100.29 91.6026C100.161 91.6026 100.032 91.6366 100.011 91.6705C99.9911 91.7112 99.9165 91.7383 99.8554 91.7383C99.6994 91.7383 99.5366 92.2674 99.5909 92.5929C99.6248 92.81 99.6248 92.8168 99.5163 92.7083C99.4281 92.6201 99.401 92.4844 99.4146 92.0978C99.4213 91.6501 99.4078 91.6026 99.2925 91.6026C99.2246 91.6026 99.1636 91.6298 99.1636 91.6569C99.1636 91.7654 98.9058 92.0164 98.8651 91.9486C98.8041 91.8536 99.1568 91.467 99.306 91.467C99.3739 91.467 99.4349 91.4398 99.4349 91.3991C99.4349 91.3652 99.496 91.3313 99.5706 91.3313C99.6452 91.3313 99.7062 91.3042 99.7062 91.2703C99.7062 91.2364 99.8215 91.1889 99.964 91.1617C100.1 91.1414 100.351 91.0464 100.52 90.9583L100.825 90.7955L99.9775 90.8294C99.15 90.8701 99.1365 90.8633 99.3332 90.748C99.4688 90.6734 99.7401 90.6259 100.147 90.5988C100.663 90.5784 100.819 90.5377 101.151 90.3681C101.361 90.2528 101.538 90.1307 101.538 90.1036C101.538 90.0697 101.572 90.0426 101.612 90.0426C101.728 90.0426 102.08 89.6356 102.08 89.4999C102.08 89.4321 102.107 89.3643 102.135 89.3507C102.168 89.3439 102.216 89.2422 102.243 89.1336L102.291 88.9369L102.087 89.154C101.972 89.2761 101.877 89.405 101.877 89.4389C101.877 89.4728 101.829 89.4999 101.775 89.4999C101.721 89.4999 101.673 89.5338 101.673 89.5678C101.673 89.6085 101.639 89.6356 101.599 89.6356C101.551 89.6356 101.429 89.7238 101.321 89.8391C101.219 89.9476 101.097 90.0426 101.063 90.0426C101.022 90.0426 100.866 90.1036 100.703 90.1714C100.418 90.3003 100.296 90.3342 99.7062 90.4495C99.0211 90.5852 98.8244 90.6395 98.7091 90.7276C98.5056 90.8904 98.2818 91.155 98.2818 91.2499C98.2818 91.2906 98.2547 91.3313 98.214 91.3313C98.1801 91.3313 98.1461 91.3991 98.1394 91.4873V91.6366L98.0647 91.4873C98.0037 91.3652 98.0241 91.2635 98.1733 90.965C98.275 90.7616 98.3971 90.5784 98.4514 90.5581C98.6006 90.5038 98.5735 90.3139 98.4242 90.3139C98.3496 90.3139 98.2818 90.3342 98.2682 90.3681C98.2615 90.3953 98.1597 90.4631 98.0444 90.5241C97.9359 90.592 97.8138 90.7005 97.7731 90.7819C97.7392 90.8633 97.6849 90.9243 97.6578 90.9243C97.6239 90.9243 97.6035 90.9718 97.6035 91.0261C97.6035 91.0803 97.5764 91.1278 97.5357 91.1278C97.5018 91.1278 97.4678 91.0532 97.4678 90.9583C97.4678 90.8633 97.5018 90.7887 97.5357 90.7887C97.5764 90.7887 97.6035 90.7548 97.6035 90.7141C97.6035 90.6734 97.6442 90.6055 97.6917 90.5581C97.8273 90.4292 98.2818 90.1782 98.3903 90.1782C98.4446 90.1782 98.4853 90.1511 98.4853 90.1172C98.4853 90.0765 98.6006 90.0426 98.743 90.0222L98.994 90.0019L98.777 89.9476C98.4582 89.8662 98.4989 89.7712 98.8516 89.7712C99.1365 89.7712 99.15 89.7645 99.1365 89.5881C99.1365 89.4796 99.0618 89.3303 98.9804 89.2422C98.8923 89.154 98.8244 89.059 98.8244 89.0251C98.8244 88.9844 98.777 88.9573 98.7227 88.9573C98.6684 88.9573 98.621 88.9302 98.621 88.8895C98.621 88.8555 98.5463 88.8216 98.4514 88.8216C98.3564 88.8216 98.2818 88.8555 98.2818 88.8895C98.2818 88.9302 98.2208 88.9573 98.1461 88.9573C98.0715 88.9573 98.0105 88.9912 98.0105 89.0251C98.0105 89.0658 97.963 89.0929 97.9087 89.0929C97.8545 89.0929 97.807 89.1269 97.807 89.1608C97.807 89.2015 97.6985 89.2286 97.5696 89.2286C97.4407 89.2286 97.3322 89.2625 97.3322 89.2964C97.3322 89.3371 97.1287 89.3643 96.8574 89.3643C96.5861 89.3643 96.3826 89.3371 96.3826 89.2964C96.3826 89.2625 96.308 89.2286 96.213 89.2286C96.118 89.2286 96.0434 89.2083 96.0434 89.1743C96.0434 89.1472 95.9553 89.0862 95.8467 89.0387C95.7314 88.9912 95.6025 88.8623 95.5551 88.747C95.5076 88.6385 95.4465 88.5503 95.4194 88.5503C95.3855 88.5503 95.3651 88.4893 95.3651 88.4147C95.3651 88.34 95.3991 88.279 95.433 88.279C95.4737 88.279 95.5008 88.3265 95.5008 88.3875C95.5008 88.5639 95.9756 88.9573 96.1927 88.9573C96.2944 88.9573 96.3826 88.9912 96.3826 89.0251C96.3826 89.0997 96.8099 89.1201 96.8777 89.0522C96.9252 88.998 96.62 88.686 96.5182 88.686C96.4233 88.686 96.1113 88.374 96.1113 88.279C96.1113 88.2451 96.0841 88.2112 96.0434 88.2112C96.0095 88.2112 95.9756 88.1705 95.9756 88.1162C95.9756 88.0552 96.0638 88.1026 96.2062 88.2315C96.6539 88.6588 96.7082 88.686 97.0948 88.686C97.2983 88.686 97.4678 88.6588 97.4678 88.6181C97.4678 88.5842 97.5289 88.5503 97.6035 88.5503C97.6781 88.5503 97.7392 88.5232 97.7392 88.4893C97.7392 88.4554 97.8341 88.3943 97.9427 88.3468C98.058 88.2993 98.1461 88.2383 98.1461 88.2044C98.1461 88.1705 98.1801 88.1433 98.2208 88.1433C98.3089 88.1433 98.7023 87.8313 98.777 87.6889C98.8244 87.6143 98.7837 87.6143 98.5735 87.7092C98.2547 87.8449 97.8477 87.9331 97.5357 87.9331C97.3458 87.9331 97.4136 87.8924 97.8816 87.7431C98.2072 87.6346 98.5396 87.5057 98.6142 87.4515L98.7634 87.3497L98.6142 87.309C98.4446 87.2616 98.4989 87.1259 98.6888 87.1259C98.7566 87.1259 98.838 87.0988 98.8584 87.0581C98.8787 87.0241 98.9601 86.9902 99.0347 86.9902C99.1025 86.9902 99.1636 86.9631 99.1636 86.9224C99.1636 86.8885 99.2043 86.8546 99.2518 86.8546C99.3806 86.8546 99.869 86.3866 99.808 86.3255C99.7808 86.2984 99.7401 86.3187 99.7266 86.3662C99.7062 86.4069 99.618 86.4476 99.5299 86.4476C99.4417 86.4476 99.3671 86.4815 99.3671 86.5154C99.3671 86.5561 99.3196 86.5833 99.2653 86.5833C99.2111 86.5833 99.1636 86.6172 99.1636 86.6511C99.1636 86.6918 99.0754 86.7189 98.9737 86.7189C98.8719 86.7189 98.7498 86.7528 98.7091 86.7935C98.5803 86.9224 96.7896 86.7867 96.7896 86.6443C96.7896 86.6104 96.7285 86.5833 96.6539 86.5833C96.5793 86.5833 96.5182 86.5561 96.5182 86.5154C96.5182 86.4815 96.4572 86.4476 96.3826 86.4476C96.308 86.4476 96.2469 86.4205 96.2469 86.3798C96.2469 86.3459 96.1248 86.3119 95.9756 86.3119C95.8264 86.3119 95.7043 86.3459 95.7043 86.3798C95.7043 86.4205 95.6568 86.4476 95.6025 86.4476C95.5483 86.4476 95.5008 86.5086 95.5008 86.5833C95.5008 86.6579 95.4737 86.7189 95.433 86.7189C95.2363 86.7189 95.4397 86.2441 95.6839 86.1288C95.901 86.0271 96.4911 86.0135 96.5522 86.1085C96.5725 86.1491 96.7014 86.1763 96.8303 86.1763C96.9591 86.1763 97.0609 86.2102 97.0609 86.2441C97.0609 86.2848 97.0948 86.3119 97.1287 86.3119C97.1694 86.3119 97.1965 86.2509 97.1965 86.1763C97.1965 86.0949 97.1491 86.0406 97.088 86.0406C96.9523 86.0406 96.7556 85.8439 96.8235 85.7829C96.8506 85.7557 96.8913 85.7761 96.9049 85.8236C96.9252 85.8643 96.993 85.905 97.0677 85.905C97.1355 85.905 97.1965 85.9389 97.1965 85.9728C97.1965 86.0135 97.2915 86.0406 97.4 86.0406C97.5153 86.0406 97.6035 86.0745 97.6035 86.1085C97.6035 86.1898 97.9223 86.1966 97.9698 86.1152C98.0105 86.0542 97.7256 85.905 97.5696 85.905C97.5153 85.905 97.4678 85.8778 97.4678 85.8371C97.4678 85.8032 97.4204 85.7693 97.3593 85.7693C97.1965 85.7693 96.6539 85.1656 96.6539 84.9825C96.6539 84.8943 96.62 84.8061 96.5861 84.7858C96.5454 84.7654 96.5182 84.6772 96.5182 84.6026C96.5182 84.4738 96.525 84.4738 96.6539 84.6366C96.7285 84.7315 96.7896 84.8536 96.7896 84.9147C96.7896 84.9757 96.8235 85.0232 96.8574 85.0232C96.8981 85.0232 96.9252 85.0571 96.9252 85.091C96.9252 85.2063 97.244 85.498 97.3661 85.498C97.4204 85.498 97.4678 85.5251 97.4678 85.559C97.4678 85.7829 98.6413 85.8371 98.7837 85.6201C98.838 85.5319 98.8244 85.4776 98.7363 85.3759C98.587 85.2131 98.5735 84.684 98.7227 84.684C98.7905 84.684 98.8244 84.6162 98.8244 84.467C98.8177 84.2635 98.8109 84.2567 98.7295 84.3652C98.6413 84.4805 98.6277 84.4738 98.587 84.2771C98.5396 84.0736 98.6549 83.6666 98.7566 83.6666C98.7837 83.6666 98.838 83.592 98.8787 83.497C98.9804 83.2732 99.5095 82.717 99.6248 82.717C99.6655 82.717 99.7062 82.6763 99.7062 82.622C99.7062 82.5678 99.7469 82.5067 99.7876 82.4931C99.8419 82.4728 99.8283 82.4524 99.7537 82.4524C99.6859 82.4457 99.5163 82.5067 99.3671 82.5813C99.2178 82.6559 99.0686 82.717 99.0347 82.717C98.8855 82.717 98.2818 83.2867 98.2818 83.4224C98.2818 83.4834 98.2547 83.5309 98.2275 83.5309C98.1529 83.5309 98.0173 84.3042 98.0851 84.3313C98.119 84.3449 98.1461 84.4127 98.1461 84.4873C98.1461 84.6094 98.1394 84.6094 98.0105 84.4805C97.8952 84.3652 97.8748 84.2567 97.8748 83.8022C97.8748 83.4835 97.902 83.2596 97.9427 83.2596C97.9834 83.2596 98.0105 83.1986 98.0105 83.124C98.0105 83.0493 98.0444 82.9883 98.0783 82.9883C98.119 82.9883 98.1461 82.9476 98.1461 82.9069C98.1461 82.7645 98.4242 82.4796 98.7702 82.2625C98.9465 82.1472 99.0754 82.0387 99.0483 82.0116C98.9804 81.9437 98.7837 81.9641 98.587 82.0658C98.4853 82.1201 98.3496 82.1472 98.2954 82.1201C98.1461 82.0658 98.5124 81.9098 98.7973 81.903C99.0415 81.903 99.5909 81.6792 99.5231 81.6114C99.5027 81.5842 99.3942 81.5639 99.2925 81.5639C99.1907 81.5639 98.9533 81.4689 98.777 81.3468C98.2886 81.0145 98.1733 80.8856 98.3835 80.8856C98.4378 80.8856 98.4853 80.9195 98.4853 80.9534C98.4853 80.9941 98.5328 81.0212 98.587 81.0212C98.6413 81.0212 98.6888 81.0552 98.6888 81.0891C98.6888 81.1298 98.7363 81.1569 98.7905 81.1569C98.8448 81.1569 98.8923 81.184 98.8923 81.2112C98.8923 81.2722 99.4892 81.4282 99.7266 81.4282C99.808 81.4282 99.9911 81.3943 100.134 81.3536C100.378 81.2858 100.385 81.279 100.385 80.9534C100.385 80.7635 100.418 80.6143 100.452 80.6143C100.493 80.6143 100.52 80.4922 100.52 80.3429C100.52 80.1937 100.554 80.0716 100.588 80.0716C100.629 80.0716 100.656 80.0106 100.656 79.936C100.656 79.8614 100.69 79.8003 100.724 79.8003C100.764 79.8003 100.791 79.7596 100.791 79.7121C100.791 79.6647 100.853 79.5833 100.927 79.529C101.002 79.4747 101.063 79.4069 101.063 79.373C101.063 79.3119 101.728 78.6472 101.789 78.6472C101.809 78.6472 101.911 78.559 102.012 78.4437C102.114 78.3352 102.223 78.2402 102.243 78.2402C102.27 78.2402 102.372 78.1588 102.467 78.0639C102.603 77.9282 102.623 77.874 102.555 77.8333C102.48 77.7858 102.487 77.7586 102.575 77.6705C102.63 77.6094 102.725 77.5619 102.772 77.5619C102.826 77.5619 102.908 77.5009 102.962 77.4263C103.016 77.3517 103.098 77.2906 103.145 77.2906C103.193 77.2906 103.396 77.1346 103.586 76.9379C104.068 76.4699 104.685 76.1918 105.2 76.2121C105.404 76.2257 105.668 76.2053 105.784 76.1782C105.919 76.1511 106.096 76.1714 106.292 76.2393C106.455 76.3003 106.699 76.3817 106.828 76.4156C106.957 76.4563 107.174 76.5174 107.303 76.5581C107.663 76.6666 108.592 77.3924 108.592 77.5619C108.592 77.6637 108.904 77.9689 109.006 77.9689C109.046 77.9689 109.168 78.0571 109.27 78.1588C109.372 78.2674 109.501 78.3759 109.569 78.3962C109.63 78.4234 109.677 78.4844 109.677 78.5387C109.677 78.5862 109.738 78.6472 109.813 78.6676C109.915 78.6947 109.948 78.7625 109.948 78.9185C109.948 79.0745 110.01 79.1966 110.186 79.3662C110.355 79.5222 110.423 79.6579 110.423 79.7935C110.423 80.0241 110.552 80.3429 110.64 80.3429C110.749 80.3429 111.034 80.6753 111.027 80.7974C111.027 80.872 111.007 80.8856 110.986 80.8381C110.932 80.7024 110.83 80.7364 110.83 80.8856C110.83 80.9602 110.864 81.0212 110.898 81.0212C110.939 81.0212 110.966 81.0823 110.966 81.1569C110.966 81.2315 111 81.2926 111.034 81.2926C111.081 81.2926 111.102 81.5503 111.095 81.9776C111.088 82.6017 111.142 82.8866 111.217 82.6627C111.264 82.5406 111.542 82.9815 111.515 83.1443C111.495 83.2732 111.617 83.3071 111.665 83.1782C111.678 83.124 111.719 83.1172 111.753 83.1511C111.787 83.185 111.78 83.2257 111.732 83.2393C111.631 83.2732 111.617 83.5309 111.712 83.5309C111.753 83.5309 111.78 83.6259 111.78 83.7344C111.78 83.8497 111.753 83.9379 111.712 83.9379C111.678 83.9379 111.644 83.8497 111.644 83.7344C111.644 83.6259 111.617 83.5309 111.576 83.5309C111.542 83.5309 111.509 83.4834 111.509 83.4224C111.509 83.2867 111.346 83.124 111.21 83.124C111.149 83.124 111.102 83.1036 111.102 83.0697C111.102 83.0426 111.041 82.9815 110.966 82.934C110.851 82.8594 110.83 82.8662 110.83 82.9815C110.83 83.0561 110.871 83.1579 110.925 83.2053C111.074 83.3546 111.224 83.6869 111.258 83.9379C111.271 84.0668 111.271 84.121 111.258 84.06C111.244 83.9922 111.197 83.9379 111.163 83.9379C111.129 83.9379 111.102 83.8904 111.102 83.8362C111.102 83.7073 110.688 83.2596 110.566 83.2596C110.505 83.2596 110.491 83.3003 110.525 83.3817C110.559 83.4428 110.647 83.6802 110.729 83.904C110.979 84.6026 111.122 84.8807 111.264 84.9147C111.373 84.9418 111.38 84.9621 111.305 85.0503C111.251 85.1249 111.244 85.1588 111.298 85.1588C111.339 85.1588 111.373 85.1928 111.373 85.2335C111.373 85.3352 111.515 85.4641 111.76 85.5929C112.01 85.715 112.18 85.6743 112.499 85.4098C112.729 85.2131 113.659 84.6162 113.733 84.6162C113.76 84.6162 113.855 84.5552 113.95 84.4805C114.045 84.4059 114.188 84.3449 114.276 84.3449C114.357 84.3449 114.425 84.3178 114.425 84.2771C114.425 84.2431 114.486 84.2092 114.561 84.2092C114.635 84.2092 114.697 84.1821 114.697 84.1414C114.697 84.1075 114.791 84.0736 114.9 84.0736C115.015 84.0736 115.104 84.0464 115.104 84.0057C115.104 83.9718 115.165 83.9379 115.239 83.9379C115.314 83.9379 115.375 83.9108 115.375 83.8701C115.375 83.8362 115.436 83.8022 115.51 83.8022C115.585 83.8022 115.646 83.7751 115.646 83.7344C115.646 83.7005 115.707 83.6666 115.782 83.6666C115.856 83.6666 115.917 83.6395 115.917 83.5988C115.917 83.5648 115.972 83.5309 116.04 83.5309C116.107 83.5309 116.202 83.4699 116.257 83.3953C116.311 83.3207 116.379 83.2596 116.406 83.2596C116.433 83.2596 116.589 83.1375 116.738 82.9883C116.894 82.8391 117.043 82.717 117.071 82.717C117.104 82.717 117.328 82.5271 117.573 82.2964C117.817 82.059 118.156 81.747 118.325 81.5978C118.746 81.2383 119.105 80.8924 119.105 80.8449C119.105 80.7499 118.936 80.5057 118.726 80.2955C118.597 80.1734 118.495 80.0377 118.495 80.0038C118.495 79.9699 118.386 79.8342 118.258 79.7053C118.129 79.5697 118.02 79.4476 118.02 79.4272C118.02 79.3798 116.609 77.9689 116.555 77.9689C116.535 77.9689 116.426 77.8807 116.324 77.7654C116.223 77.6569 116.107 77.5619 116.073 77.5619C116.04 77.5619 115.877 77.4398 115.714 77.2906C115.551 77.1414 115.388 77.0193 115.354 77.0193C115.327 77.0193 115.226 76.9447 115.137 76.8565C115.049 76.7616 114.907 76.6734 114.832 76.6462C114.758 76.6259 114.697 76.5716 114.697 76.5377C114.697 76.4902 114.513 76.4767 114.208 76.5038C113.543 76.5513 113.136 76.6123 113.136 76.6802C113.136 76.7073 112.872 76.748 112.546 76.7616C111.963 76.7955 111.78 76.7616 111.59 76.5716C111.542 76.5174 111.373 76.4495 111.217 76.4088C110.851 76.3207 110.342 76.0629 110.281 75.934C110.26 75.8798 110.206 75.7577 110.166 75.6627C110.132 75.5678 110.064 75.405 110.023 75.3032C109.982 75.2015 109.948 74.9505 109.948 74.747C109.948 74.4486 109.969 74.374 110.057 74.374C110.193 74.374 110.403 74.6046 110.457 74.8081C110.484 74.8827 110.566 75.0929 110.647 75.2693C110.762 75.5271 110.83 75.5949 110.952 75.5949C111.081 75.5949 111.108 75.5745 111.061 75.4796C110.946 75.2286 111.061 73.9263 111.217 73.7771C111.339 73.6482 111.509 73.7838 111.509 74.0145C111.509 74.1026 111.556 74.2247 111.61 74.2858C111.705 74.3807 111.732 74.374 111.841 74.2451C111.909 74.1637 112.024 74.1026 112.099 74.1026C112.166 74.1026 112.295 74.0416 112.377 73.967C112.546 73.8042 112.635 73.7974 112.77 73.9263C112.947 74.1026 112.879 74.3061 112.519 74.6521C112.214 74.9505 112.187 74.998 112.282 75.0862C112.397 75.2015 112.594 75.2218 112.594 75.1201C112.594 75.0862 112.716 75.0522 112.865 75.0522C113.014 75.0522 113.136 75.0251 113.136 74.9844C113.136 74.9505 113.245 74.9166 113.374 74.9166C113.503 74.9166 113.611 74.8895 113.611 74.8488C113.611 74.8081 113.883 74.7809 114.29 74.7809C114.697 74.7809 114.968 74.8081 114.968 74.8488C114.968 74.8895 115.022 74.9166 115.09 74.9166C115.158 74.9166 115.253 74.9776 115.307 75.0522C115.361 75.1269 115.436 75.1879 115.477 75.1879C115.51 75.1879 115.653 75.2829 115.782 75.3914C115.911 75.4999 116.06 75.5949 116.107 75.5949C116.148 75.5949 116.189 75.6288 116.189 75.6627C116.189 75.7034 116.229 75.7305 116.284 75.7305C116.338 75.7305 116.392 75.7509 116.406 75.7848C116.419 75.8119 116.562 75.9272 116.731 76.0358C116.901 76.1511 117.077 76.28 117.125 76.3274C117.172 76.3681 117.24 76.4088 117.274 76.4088C117.308 76.4088 117.41 76.4835 117.505 76.5784C117.6 76.6734 117.715 76.748 117.762 76.748C117.817 76.748 117.898 76.809 117.952 76.8836C118.007 76.9583 118.095 77.0193 118.149 77.0193C118.197 77.0193 118.291 77.0736 118.353 77.1414C118.414 77.2024 118.542 77.2974 118.651 77.3517C118.753 77.4059 118.834 77.4738 118.834 77.5077C118.834 77.5348 118.875 77.5619 118.922 77.5619C118.97 77.5619 119.051 77.623 119.105 77.6976C119.16 77.7722 119.248 77.8333 119.309 77.8333C119.37 77.8333 119.458 77.8943 119.512 77.9689C119.567 78.0435 119.641 78.1046 119.682 78.1046C119.716 78.1046 119.838 78.1792 119.947 78.2741C120.055 78.3691 120.17 78.4437 120.197 78.4437C120.231 78.4437 120.36 78.5522 120.489 78.6811C120.625 78.81 120.747 78.9185 120.774 78.9185C120.794 78.9185 120.91 78.9999 121.032 79.0949C122.171 80.0241 122.226 80.0716 122.266 80.2412C122.3 80.3836 122.117 80.8449 121.948 81.0484C121.914 81.0891 121.825 81.1976 121.751 81.2926C121.011 82.2354 118.468 84.7315 117.749 85.2267C117.667 85.2809 117.518 85.3962 117.423 85.4776C117.322 85.5658 117.206 85.6336 117.172 85.6336C117.132 85.6336 117.057 85.6947 117.003 85.7693C116.948 85.8439 116.867 85.905 116.82 85.905C116.772 85.905 116.731 85.9389 116.731 85.9728C116.731 86.0135 116.684 86.0406 116.63 86.0406C116.575 86.0406 116.528 86.0745 116.528 86.1085C116.528 86.1491 116.487 86.1763 116.44 86.1763C116.392 86.1763 116.311 86.2373 116.257 86.3119C116.202 86.3866 116.121 86.4476 116.073 86.4476C116.026 86.4476 115.985 86.4815 115.985 86.5154C115.985 86.5561 115.951 86.5833 115.911 86.5833C115.87 86.5833 115.748 86.6782 115.646 86.7867C115.544 86.9021 115.429 86.9902 115.395 86.9902C115.307 86.9902 114.832 87.5193 114.832 87.621C114.832 87.6685 115.07 87.8245 115.361 87.967C116.141 88.3672 116.799 88.8895 116.799 89.1201C116.799 89.1811 116.833 89.2286 116.867 89.2286C116.908 89.2286 116.935 89.2897 116.935 89.3643C116.935 89.4389 116.969 89.4999 117.01 89.4999C117.057 89.4999 117.071 89.7102 117.05 90.1307C117.016 90.8294 116.948 91.1957 116.86 91.1957C116.826 91.1957 116.799 91.2364 116.799 91.2906C116.799 91.3856 116.413 92.0707 116.318 92.1453C116.148 92.2809 115.951 92.8507 115.911 93.3323C115.843 94.0648 115.782 94.4583 115.714 94.621C115.68 94.6957 115.639 94.8924 115.619 95.0619C115.544 95.686 115.497 95.9437 115.436 95.9844C115.402 96.0048 115.375 96.154 115.375 96.3236C115.375 96.4864 115.348 96.622 115.307 96.622C115.273 96.622 115.239 96.7305 115.239 96.8594C115.239 96.9883 115.212 97.0968 115.171 97.0968C115.137 97.0968 115.104 97.2325 115.104 97.4021C115.104 97.5716 115.076 97.7073 115.036 97.7073C115.002 97.7073 114.968 97.8294 114.968 97.9786C114.968 98.1278 114.941 98.2499 114.9 98.2499C114.866 98.2499 114.832 98.372 114.832 98.5212C114.832 98.6705 114.805 98.7926 114.764 98.7926C114.73 98.7926 114.697 98.9147 114.697 99.0639C114.697 99.2131 114.669 99.3352 114.629 99.3352C114.588 99.3352 114.561 99.5522 114.561 99.8439C114.561 100.136 114.534 100.353 114.493 100.353C114.459 100.353 114.425 100.475 114.425 100.624C114.425 100.773 114.459 100.895 114.493 100.895C114.534 100.895 114.561 101.004 114.561 101.139C114.561 101.323 114.608 101.431 114.771 101.58C114.886 101.689 115.009 101.777 115.036 101.777C115.07 101.777 115.137 101.818 115.185 101.872C115.239 101.919 115.504 102.069 115.782 102.204C116.277 102.442 116.555 102.55 117.24 102.781C117.43 102.842 117.593 102.917 117.6 102.944C117.613 102.971 117.715 102.998 117.823 102.998C117.932 102.998 118.02 103.032 118.02 103.066C118.02 103.107 118.142 103.134 118.291 103.134C118.441 103.134 118.563 103.168 118.563 103.201C118.563 103.242 118.624 103.269 118.698 103.269C118.773 103.269 118.834 103.303 118.834 103.337C118.834 103.378 118.936 103.405 119.065 103.405C119.194 103.405 119.323 103.439 119.343 103.473C119.363 103.513 119.458 103.541 119.553 103.541C119.641 103.541 119.716 103.575 119.716 103.608C119.716 103.649 119.811 103.676 119.919 103.676C120.035 103.676 120.123 103.71 120.123 103.744C120.123 103.785 120.218 103.812 120.326 103.812C120.442 103.812 120.53 103.846 120.53 103.88C120.53 103.92 120.591 103.948 120.666 103.948C120.788 103.948 120.801 103.995 120.801 104.422C120.801 104.694 120.774 104.897 120.733 104.897C120.699 104.897 120.666 104.958 120.666 105.033C120.666 105.107 120.638 105.169 120.598 105.169C120.564 105.169 120.53 105.23 120.53 105.304C120.53 105.379 120.503 105.44 120.462 105.44C120.428 105.44 120.394 105.481 120.394 105.535C120.394 105.589 120.36 105.643 120.326 105.657C120.286 105.67 120.313 105.745 120.394 105.826C120.469 105.908 120.53 106.037 120.53 106.111C120.53 106.281 119.506 107.346 119.465 107.224C119.445 107.176 119.39 107.136 119.336 107.136C119.282 107.136 119.241 107.108 119.241 107.075C119.241 106.986 118.956 106.668 118.176 105.894C117.233 104.945 117.206 104.931 117.206 105.169C117.206 105.243 117.24 105.304 117.274 105.304C117.315 105.304 117.342 105.352 117.342 105.406C117.342 105.46 117.376 105.508 117.41 105.508C117.45 105.508 117.478 105.562 117.478 105.63C117.478 105.698 117.539 105.793 117.613 105.847C117.688 105.901 117.749 105.982 117.749 106.03C117.749 106.077 117.783 106.118 117.817 106.118C117.857 106.118 117.885 106.152 117.885 106.186C117.885 106.227 118.054 106.423 118.258 106.627C118.461 106.837 118.631 107.034 118.631 107.068C118.631 107.108 118.678 107.136 118.732 107.136C118.787 107.136 118.834 107.163 118.834 107.19C118.834 107.224 118.895 107.326 118.97 107.414C119.044 107.502 119.126 107.61 119.153 107.644C119.438 108.017 119.791 108.438 120.001 108.648C120.143 108.791 120.259 108.94 120.259 108.987C120.259 109.035 120.32 109.116 120.394 109.17C120.469 109.225 120.53 109.313 120.53 109.36C120.53 109.415 120.625 109.544 120.733 109.645C120.849 109.747 120.937 109.869 120.937 109.917C120.937 109.964 121.032 110.086 121.14 110.188C121.249 110.29 121.344 110.425 121.344 110.48C121.344 110.541 121.371 110.595 121.398 110.608C121.473 110.636 121.819 111.165 122.056 111.612C122.158 111.816 122.266 111.999 122.287 112.019C122.307 112.04 122.361 112.128 122.402 112.223C122.443 112.318 122.544 112.535 122.626 112.718C122.775 113.057 122.829 113.919 122.7 113.919C122.666 113.919 122.633 113.952 122.633 114C122.633 114.068 122.314 114.393 121.961 114.685C121.88 114.746 121.744 114.8 121.649 114.8C121.554 114.8 121.479 114.834 121.479 114.868C121.479 114.95 119.404 114.963 119.35 114.875C119.316 114.821 118.814 114.787 116.569 114.692L115.633 114.644L115.673 114.943C115.694 115.106 115.741 115.438 115.775 115.682C115.816 115.926 115.863 116.34 115.884 116.598C115.911 116.923 115.992 117.215 116.135 117.527L116.352 117.988L116.189 118.327C116.101 118.511 116.006 118.667 115.979 118.667C115.951 118.667 115.911 118.728 115.884 118.802C115.863 118.877 115.728 119.053 115.592 119.202C115.056 119.765 114.832 120.03 114.832 120.091C114.832 120.132 114.744 120.254 114.629 120.376C114.52 120.491 114.425 120.613 114.425 120.647C114.425 120.688 114.337 120.803 114.222 120.905C114.106 121.007 114.018 121.142 114.018 121.203C114.018 121.264 113.991 121.312 113.964 121.312C113.93 121.312 113.849 121.441 113.774 121.59C113.706 121.746 113.618 121.909 113.577 121.95C113.462 122.065 113.136 122.675 113.136 122.77C113.136 122.825 113.116 122.872 113.089 122.886C113.008 122.919 112.594 123.618 112.594 123.706C112.594 123.754 112.533 123.835 112.458 123.889C112.384 123.944 112.323 124.039 112.323 124.107C112.323 124.174 112.295 124.229 112.255 124.229C112.221 124.229 112.187 124.29 112.187 124.364C112.187 124.439 112.16 124.5 112.119 124.5C112.085 124.5 112.051 124.547 112.051 124.602C112.051 124.656 112.024 124.703 111.983 124.703C111.949 124.703 111.916 124.751 111.916 124.805C111.916 124.859 111.888 124.907 111.848 124.907C111.814 124.907 111.78 124.968 111.78 125.043C111.78 125.117 111.76 125.178 111.726 125.178C111.698 125.178 111.637 125.28 111.583 125.402C111.529 125.517 111.468 125.633 111.447 125.653C111.42 125.673 111.298 125.89 111.176 126.148C111.047 126.399 110.918 126.603 110.891 126.603C110.857 126.603 110.83 126.664 110.83 126.738C110.83 126.813 110.803 126.874 110.776 126.874C110.742 126.874 110.634 127.057 110.525 127.281C110.416 127.505 110.308 127.688 110.274 127.688C110.247 127.688 110.22 127.735 110.22 127.796C110.22 127.851 110.172 127.946 110.118 128.007C110.057 128.061 109.989 128.197 109.969 128.305C109.948 128.414 109.908 128.502 109.874 128.502C109.84 128.502 109.813 128.549 109.813 128.604C109.813 128.658 109.786 128.705 109.745 128.705C109.711 128.705 109.677 128.773 109.677 128.861C109.677 128.95 109.616 129.085 109.541 129.167C109.467 129.248 109.406 129.39 109.406 129.485C109.406 129.58 109.379 129.655 109.338 129.655C109.304 129.655 109.27 129.716 109.27 129.791C109.27 129.865 109.243 129.926 109.202 129.926C109.168 129.926 109.135 129.987 109.135 130.062C109.135 130.137 109.107 130.198 109.067 130.198C109.033 130.198 108.999 130.293 108.999 130.401C108.999 130.516 108.972 130.605 108.931 130.605C108.897 130.605 108.863 130.713 108.863 130.842C108.863 130.971 108.836 131.079 108.795 131.079C108.761 131.079 108.728 131.168 108.728 131.276C108.728 131.391 108.7 131.5 108.66 131.52C108.619 131.547 108.592 131.961 108.592 132.538C108.592 133.114 108.619 133.528 108.66 133.555C108.7 133.576 108.728 133.704 108.728 133.833C108.728 133.962 108.761 134.064 108.795 134.064C108.836 134.064 108.863 134.186 108.863 134.335C108.863 134.484 108.897 134.607 108.931 134.607C108.972 134.607 108.999 134.715 108.999 134.844C108.999 134.973 109.033 135.081 109.067 135.081C109.107 135.081 109.135 135.203 109.135 135.353C109.135 135.502 109.162 135.624 109.196 135.624C109.229 135.624 109.27 135.726 109.291 135.848C109.399 136.513 109.582 136.743 110.098 136.919C110.254 136.967 110.491 137.109 110.62 137.232C110.837 137.435 111.19 137.591 111.427 137.591C111.475 137.591 111.509 137.679 111.509 137.794C111.509 137.91 111.542 137.998 111.576 137.998C111.698 137.998 111.651 138.235 111.509 138.337C111.434 138.391 111.373 138.459 111.373 138.486C111.373 138.513 112.119 138.541 113.035 138.541C114.1 138.541 114.697 138.568 114.697 138.608C114.697 138.656 115.646 138.676 117.41 138.676C119.173 138.676 120.123 138.703 120.123 138.744C120.123 138.785 119.58 138.812 118.651 138.819C117.837 138.819 117.037 138.846 116.867 138.873C116.643 138.914 116.82 138.934 117.532 138.941C118.298 138.948 118.529 138.968 118.604 139.049C118.671 139.11 118.861 139.158 119.092 139.165C119.302 139.171 118.536 139.205 117.376 139.232C114.357 139.314 103.369 139.355 103.166 139.287ZM107.507 138.48C107.507 138.446 107.466 138.371 107.418 138.324C107.371 138.276 107.256 138.025 107.161 137.761C107.073 137.503 106.978 137.279 106.95 137.265C106.916 137.252 106.896 137.15 106.896 137.048C106.896 136.94 106.869 136.831 106.828 136.811C106.794 136.791 106.76 136.709 106.76 136.635C106.76 136.567 106.733 136.506 106.693 136.506C106.659 136.506 106.625 136.431 106.625 136.336C106.625 136.241 106.598 136.167 106.571 136.167C106.537 136.167 106.469 136.085 106.415 135.983C106.36 135.882 106.164 135.644 105.974 135.454C105.404 134.885 105.173 134.81 105.112 135.169C105.085 135.285 105.038 135.556 104.997 135.76C104.949 135.963 104.902 136.675 104.882 137.34L104.848 138.541H106.177C106.95 138.541 107.507 138.513 107.507 138.48ZM116.955 111.002C116.989 110.975 116.779 110.832 116.48 110.69C116.189 110.547 115.945 110.412 115.931 110.378C115.917 110.351 115.87 110.324 115.822 110.324C115.7 110.324 115.375 110.161 115.375 110.107C115.375 110.073 115.253 110.052 115.104 110.052C114.846 110.052 114.832 110.066 114.832 110.256C114.832 110.371 114.866 110.459 114.9 110.459C114.941 110.459 114.968 110.547 114.968 110.656C114.968 110.846 114.954 110.853 114.513 110.907C114.269 110.941 114.052 111.002 114.039 111.043C114.005 111.138 116.86 111.09 116.955 111.002ZM100.317 89.3643C100.371 89.2897 100.466 89.2286 100.534 89.2286C100.608 89.2286 100.656 89.1811 100.656 89.0929C100.656 89.0183 100.629 88.9573 100.602 88.9573C100.574 88.9573 100.507 89.0183 100.452 89.0929C100.398 89.1676 100.317 89.2286 100.262 89.2286C100.174 89.2286 99.9775 89.3846 99.9775 89.4592C99.9775 89.561 100.229 89.4864 100.317 89.3643ZM99.8419 89.1608C99.8419 89.1269 99.9029 89.0929 99.9775 89.0929C100.052 89.0929 100.113 89.0658 100.113 89.0319C100.113 88.998 100.174 88.9437 100.249 88.9234C100.425 88.8691 100.676 88.6181 100.832 88.3468C100.9 88.2383 100.981 88.1433 101.009 88.1433C101.036 88.1433 101.063 88.0823 101.063 88.0145C101.063 87.9398 101.097 87.872 101.137 87.8585C101.178 87.8449 101.205 87.7771 101.192 87.716C101.171 87.621 101.11 87.6482 100.88 87.8652C100.724 88.0145 100.507 88.184 100.398 88.2383C100.106 88.3875 99.1975 88.686 99.0347 88.686C98.8448 88.686 98.8516 88.8759 99.0483 89.0726C99.1568 89.1811 99.2789 89.2218 99.5231 89.2218C99.6994 89.2286 99.8419 89.2015 99.8419 89.1608ZM99.4281 85.2335C99.5095 85.1249 99.5706 84.9689 99.5706 84.8943C99.5706 84.6976 99.7266 84.2092 99.7876 84.2092C99.8215 84.2092 99.8419 84.155 99.8419 84.0871C99.8419 84.0193 99.9029 83.9243 99.9775 83.8701C100.052 83.8158 100.113 83.7276 100.113 83.6666C100.113 83.6055 100.174 83.5174 100.249 83.4631C100.323 83.4088 100.385 83.341 100.385 83.3139C100.385 83.0019 99.2382 84.0939 99.1093 84.5348C99.0618 84.684 99.0279 84.9418 99.0279 85.1181C99.0279 85.3827 99.0483 85.4302 99.1568 85.4302C99.2314 85.4302 99.3535 85.342 99.4281 85.2335ZM110.966 81.9234C110.966 81.8148 110.932 81.686 110.898 81.6317C110.851 81.5571 110.83 81.6046 110.83 81.8216C110.83 81.9776 110.864 82.1065 110.898 82.1065C110.939 82.1065 110.966 82.0251 110.966 81.9234ZM110.769 81.1094C110.708 81.0077 110.701 81.028 110.701 81.2247C110.701 81.4214 110.708 81.4418 110.769 81.3468C110.817 81.2654 110.817 81.184 110.769 81.1094ZM100.656 81.0891C100.656 81.0552 100.724 81.0212 100.805 81.0212C100.92 81.0212 100.934 81.0009 100.873 80.9398C100.771 80.8381 100.764 80.6143 100.859 80.6143C100.9 80.6143 100.927 80.6753 100.927 80.7499C100.927 80.8245 100.941 80.8856 100.961 80.8856C101.07 80.8856 101.483 80.3769 101.68 79.997C101.809 79.7596 101.931 79.5493 101.951 79.529C101.979 79.5086 102.046 79.3798 102.107 79.2305C102.318 78.7218 102.236 78.7286 101.687 79.2645C101.456 79.4883 101.239 79.6579 101.205 79.6375C101.171 79.6104 101.124 79.624 101.097 79.6647C101.076 79.6986 101.09 79.7325 101.124 79.7325C101.165 79.7325 101.198 79.7935 101.198 79.8681C101.198 79.9428 101.171 80.0038 101.131 80.0038C101.097 80.0038 101.063 79.9563 101.063 79.9021C101.063 79.8207 101.036 79.8274 100.927 79.936C100.853 80.0106 100.791 80.1055 100.791 80.1395C100.791 80.1802 100.764 80.2073 100.724 80.2073C100.69 80.2073 100.656 80.3294 100.656 80.4786C100.656 80.6278 100.629 80.7499 100.588 80.7499C100.554 80.7499 100.52 80.8449 100.52 80.9534C100.52 81.0687 100.554 81.1569 100.588 81.1569C100.629 81.1569 100.656 81.1298 100.656 81.0891Z" fill="white"/>
<path d="M95.5545 139.002C95.7852 138.961 96.0633 138.961 96.3346 139.002C96.7348 139.063 96.7212 139.063 95.9751 139.07C95.2697 139.07 95.229 139.063 95.5545 139.002Z" fill="white"/>
<path d="M107.778 92.9186C107.778 92.8575 107.989 92.6676 108.023 92.7015C108.084 92.7626 107.968 92.9593 107.873 92.9593C107.819 92.9593 107.778 92.9389 107.778 92.9186Z" fill="white"/>
<path d="M98.7773 92.2809C98.7773 92.1114 98.7909 92.0435 98.8045 92.1317C98.818 92.2131 98.818 92.3488 98.8045 92.437C98.7909 92.5184 98.7773 92.4505 98.7773 92.2809Z" fill="white"/>
<path d="M100.316 91.8061C100.242 91.7586 100.289 91.7383 100.506 91.7383C100.662 91.7383 100.791 91.7722 100.791 91.8061C100.791 91.8943 100.452 91.8943 100.316 91.8061Z" fill="white"/>
<path d="M101.254 91.623C101.294 91.6027 101.335 91.562 101.335 91.5281C101.335 91.4942 101.416 91.467 101.518 91.467C101.756 91.467 101.647 91.5756 101.369 91.6163C101.26 91.6366 101.206 91.6366 101.254 91.623Z" fill="white"/>
<path d="M97.7383 89.7034C97.7383 89.6695 97.8943 89.6356 98.0774 89.6356C98.2674 89.6356 98.4166 89.6695 98.4166 89.7034C98.4166 89.7441 98.2674 89.7713 98.0774 89.7713C97.8943 89.7713 97.7383 89.7441 97.7383 89.7034Z" fill="white"/>
<path d="M98.7091 89.3982C98.6616 89.344 98.6209 89.249 98.6277 89.1812C98.6277 89.0794 98.6413 89.0862 98.7023 89.2151C98.743 89.2965 98.8176 89.3643 98.8719 89.3643C98.9194 89.3643 98.9601 89.3982 98.9601 89.4321C98.9601 89.5339 98.8041 89.5135 98.7091 89.3982Z" fill="white"/>
<path d="M97.6709 87.3294C97.7252 87.2955 97.8473 87.2616 97.9423 87.2616C98.0372 87.2616 98.1593 87.2955 98.2136 87.3294C98.2882 87.3769 98.2068 87.3973 97.9423 87.3973C97.6777 87.3973 97.5963 87.3769 97.6709 87.3294Z" fill="white"/>
<path d="M111.645 84.4467C111.645 84.3924 111.678 84.3449 111.712 84.3449C111.753 84.3449 111.78 84.2839 111.78 84.2093C111.78 84.1347 111.814 84.0736 111.848 84.0736C111.889 84.0736 111.916 84.1347 111.916 84.2093C111.916 84.2839 111.889 84.3449 111.848 84.3449C111.814 84.3449 111.78 84.3924 111.78 84.4467C111.78 84.5009 111.753 84.5484 111.712 84.5484C111.678 84.5484 111.645 84.5009 111.645 84.4467Z" fill="white"/>
<path d="M111.916 83.5309C111.916 83.4563 111.95 83.3953 111.984 83.3953C112.025 83.3953 112.052 83.4563 112.052 83.5309C112.052 83.6055 112.025 83.6666 111.984 83.6666C111.95 83.6666 111.916 83.6055 111.916 83.5309Z" fill="white"/>
<path d="M97.1963 83.0561C97.1963 83.0222 97.2302 82.9883 97.2641 82.9883C97.3048 82.9883 97.3319 82.9408 97.3319 82.8865C97.3319 82.7373 97.9153 82.1743 98.0577 82.1743C98.1595 82.1811 98.1527 82.2014 98.0102 82.31C97.5761 82.6559 97.4744 82.7576 97.4676 82.839C97.4676 83.0018 97.1963 83.2121 97.1963 83.0561Z" fill="white"/>
<path d="M111.346 81.9912C111.325 81.8488 111.291 81.6046 111.264 81.4486C111.244 81.2858 111.197 81.1569 111.163 81.1569C111.129 81.1569 111.102 81.0958 111.102 81.0212C111.102 80.9466 111.135 80.8856 111.169 80.8856C111.21 80.8856 111.237 80.8245 111.237 80.7499C111.237 80.6753 111.271 80.6143 111.305 80.6143C111.346 80.6143 111.373 80.7024 111.373 80.811C111.373 80.9263 111.407 81.0348 111.441 81.0551C111.522 81.1094 111.529 82.2422 111.447 82.2422C111.414 82.2422 111.366 82.1269 111.346 81.9912Z" fill="white"/>
<path d="M97.4678 81.7741C97.4678 81.7402 97.5153 81.6928 97.5763 81.6724C97.7391 81.6114 97.7594 81.6249 97.6441 81.7334C97.5288 81.8488 97.4678 81.8623 97.4678 81.7741Z" fill="white"/>
<path d="M98.065 81.4825C98.1192 81.4282 98.1803 81.4282 98.2956 81.4825C98.4448 81.5503 98.438 81.5571 98.221 81.5571C98.0378 81.5639 98.0039 81.5435 98.065 81.4825Z" fill="white"/>
<path d="M110.83 80.1394C110.83 80.1054 110.878 80.0715 110.932 80.0715C110.986 80.0715 111.034 80.1054 111.034 80.1394C111.034 80.1801 110.986 80.2072 110.932 80.2072C110.878 80.2072 110.83 80.1801 110.83 80.1394Z" fill="white"/>
<path d="M100.249 79.936C100.249 79.8613 100.283 79.8003 100.317 79.8003C100.358 79.8003 100.385 79.8613 100.385 79.936C100.385 80.0106 100.358 80.0716 100.317 80.0716C100.283 80.0716 100.249 80.0106 100.249 79.936Z" fill="white"/>
<path d="M100.439 79.5493C100.479 79.5358 100.52 79.4679 100.52 79.4001C100.52 79.3391 100.581 79.2441 100.656 79.1898C100.73 79.1356 100.791 79.0677 100.791 79.0406C100.791 79.0135 100.879 78.905 100.988 78.8032C101.32 78.4912 101.47 78.3759 101.47 78.4302C101.47 78.4641 101.348 78.5929 101.198 78.7218C101.049 78.8507 100.927 78.9864 100.927 79.0203C100.927 79.061 100.866 79.1356 100.791 79.1898C100.717 79.2441 100.656 79.3391 100.656 79.4001C100.656 79.5019 100.513 79.6036 100.398 79.59C100.371 79.59 100.391 79.5697 100.439 79.5493Z" fill="white"/>
</g>
</g>
</g>
<defs>
<filter id="filter0_d_307_40" x="24.7656" y="44.3207" width="67.8076" height="105.134" filterUnits="userSpaceOnUse" color-interpolation-filters="sRGB">
<feFlood flood-opacity="0" result="BackgroundImageFix"/>
<feColorMatrix in="SourceAlpha" type="matrix" values="0 0 0 0 0 0 0 0 0 0 0 0 0 0 0 0 0 0 127 0" result="hardAlpha"/>
<feOffset dy="4"/>
<feGaussianBlur stdDeviation="2"/>
<feComposite in2="hardAlpha" operator="out"/>
<feColorMatrix type="matrix" values="0 0 0 0 0 0 0 0 0 0 0 0 0 0 0 0 0 0 0.25 0"/>
<feBlend mode="normal" in2="BackgroundImageFix" result="effect1_dropShadow_307_40"/>
<feBlend mode="normal" in="SourceGraphic" in2="effect1_dropShadow_307_40" result="shape"/>
</filter>
<filter id="filter1_d_307_40" x="123.321" y="70.245" width="44.6582" height="82.5487" filterUnits="userSpaceOnUse" color-interpolation-filters="sRGB">
<feFlood flood-opacity="0" result="BackgroundImageFix"/>
<feColorMatrix in="SourceAlpha" type="matrix" values="0 0 0 0 0 0 0 0 0 0 0 0 0 0 0 0 0 0 127 0" result="hardAlpha"/>
<feOffset dy="4"/>
<feGaussianBlur stdDeviation="2"/>
<feComposite in2="hardAlpha" operator="out"/>
<feColorMatrix type="matrix" values="0 0 0 0 0 0 0 0 0 0 0 0 0 0 0 0 0 0 0.25 0"/>
<feBlend mode="normal" in2="BackgroundImageFix" result="effect1_dropShadow_307_40"/>
<feBlend mode="normal" in="SourceGraphic" in2="effect1_dropShadow_307_40" result="shape"/>
</filter>
<filter id="filter2_d_307_40" x="87.2275" y="73.7272" width="39.5449" height="73.5939" filterUnits="userSpaceOnUse" color-interpolation-filters="sRGB">
<feFlood flood-opacity="0" result="BackgroundImageFix"/>
<feColorMatrix in="SourceAlpha" type="matrix" values="0 0 0 0 0 0 0 0 0 0 0 0 0 0 0 0 0 0 127 0" result="hardAlpha"/>
<feOffset dy="4"/>
<feGaussianBlur stdDeviation="2"/>
<feComposite in2="hardAlpha" operator="out"/>
<feColorMatrix type="matrix" values="0 0 0 0 0 0 0 0 0 0 0 0 0 0 0 0 0 0 0.25 0"/>
<feBlend mode="normal" in2="BackgroundImageFix" result="effect1_dropShadow_307_40"/>
<feBlend mode="normal" in="SourceGraphic" in2="effect1_dropShadow_307_40" result="shape"/>
</filter>
<radialGradient id="paint0_radial_307_40" cx="0" cy="0" r="1" gradientUnits="userSpaceOnUse" gradientTransform="translate(17.3617 20.3457) rotate(44.8233) scale(186.643 186.806)">
<stop stop-color="#FBC618"/>
<stop offset="1" stop-color="#CF2B8A"/>
</radialGradient>
<clipPath id="clip0_307_40">
<rect width="208.34" height="204" fill="white"/>
</clipPath>
<clipPath id="clip1_307_40">
<rect width="70" height="70" fill="white" transform="translate(74 72)"/>
</clipPath>
</defs>
</svg>
