<svg width="6912" height="6912" viewBox="0 0 6912 6912" fill="none" xmlns="http://www.w3.org/2000/svg">
<path d="M5674.32 589.613C6231.52 983.199 6637.55 1593.05 6810.32 2246.14C6978.78 2903.55 6918.31 3604.22 6771.45 4343.82C6620.28 5083.42 6378.38 5857.61 5855.73 6324.73C5333.08 6796.17 4521.03 6960.52 3756.49 6899.97C2991.94 6839.42 2270.6 6549.64 1722.03 6091.17C1169.14 5628.38 789.031 4992.59 465.072 4274.62C141.114 3556.64 -126.691 2752.17 63.3642 2073.14C249.1 1389.76 888.377 831.819 1570.85 477.16C2257.64 126.824 2983.3 -15.9051 3700.33 1.39531C4417.36 18.6958 5121.42 196.026 5674.32 589.613Z" fill="url(#paint0_linear_315_17)"/>
<defs>
<linearGradient id="paint0_linear_315_17" x1="2039.38" y1="6.84367" x2="5598.04" y2="6918.85" gradientUnits="userSpaceOnUse">
<stop stop-color="#FEAC00"/>
<stop offset="1" stop-color="#CF2B8A"/>
</linearGradient>
</defs>
</svg>
